<?xml version="1.0" encoding="UTF-8"?>
<svg version="1.1" xmlns="http://www.w3.org/2000/svg" width="180" height="80">
<path d="M0 0 C5.94 0 11.88 0 18 0 C18.33 2.64 18.66 5.28 19 8 C19.66 8 20.32 8 21 8 C21.763125 7.236875 22.52625 6.47375 23.3125 5.6875 C27.61803099 1.38196901 30.33136062 -0.18961883 36.4375 -0.4375 C41.4240374 -0.28355321 44.21396277 0.57453775 48 4 C52.87385374 9.20586013 54.3186605 12.40566314 54.20703125 19.46875 C53.76513774 24.87152349 51.36140317 27.85456034 47.4375 31.3125 C43.62353937 34.4374871 41.47426719 35.13809018 36.5 35.125 C35.5203125 35.12757812 34.540625 35.13015625 33.53125 35.1328125 C31 35 31 35 29 34 C28.46890625 34.66386719 27.9378125 35.32773438 27.390625 36.01171875 C23.92708333 40.34114583 20.46354167 44.67057292 17 49 C15.35 48.67 13.7 48.34 12 48 C12.58753729 44.9249292 13.45473989 43.12098863 15.50390625 40.765625 C16.24350586 39.90517578 16.24350586 39.90517578 16.99804688 39.02734375 C17.77245117 38.14755859 17.77245117 38.14755859 18.5625 37.25 C19.08263672 36.64800781 19.60277344 36.04601562 20.13867188 35.42578125 C21.41956274 33.94511841 22.70896312 32.47182458 24 31 C23.35546875 30.38640625 22.7109375 29.7728125 22.046875 29.140625 C19.97380598 26.97260625 19.41475174 25.90326219 19 23 C18.566875 24.093125 18.13375 25.18625 17.6875 26.3125 C16.55956546 29.15919193 15.41363981 31.07362081 13 33 C8.42912727 34.45397285 4.92580078 34.42081854 0.5625 32.4375 C-2.29314388 29.72115582 -3.13537897 27.80433253 -4 24 C-1.3333581 22.66667905 0.16680303 23.32897967 3 24 C3.33 24.99 3.66 25.98 4 27 C5.98 27 7.96 27 10 27 C10.33 20.07 10.66 13.14 11 6 C5.06 6.495 5.06 6.495 -1 7 C-0.67 4.69 -0.34 2.38 0 0 Z " fill="#0050AD" transform="translate(9,31)"/>
<path d="M0 0 C2.31 0.66 4.62 1.32 7 2 C7 2.66 7 3.32 7 4 C7.99 3.7215625 7.99 3.7215625 9 3.4375 C13.52479774 2.77763366 17.99420697 2.84514947 22.0625 5.1875 C23.4953423 7.95766177 22.67900992 10.03704761 22 13 C21.84188612 16.05270463 21.84188612 16.05270463 23 19 C23 19.66 23 20.32 23 21 C21.68 21 20.36 21 19 21 C18.01 19.02 17.02 17.04 16 15 C15.67 16.98 15.34 18.96 15 21 C13.75863281 20.98839844 12.51726562 20.97679688 11.23828125 20.96484375 C9.59635568 20.95546132 7.95442847 20.9463616 6.3125 20.9375 C5.49587891 20.92912109 4.67925781 20.92074219 3.83789062 20.91210938 C-0.24499084 20.89557949 -4.01651707 20.96964902 -8 22 C-8.309375 21.030625 -8.61875 20.06125 -8.9375 19.0625 C-9.69523342 16.15934208 -9.69523342 16.15934208 -11 15 C-11 17.31 -11 19.62 -11 22 C-12.32 21.67 -13.64 21.34 -15 21 C-15 15.39 -15 9.78 -15 4 C-14.01 4 -13.02 4 -12 4 C-11.67 5.65 -11.34 7.3 -11 9 C-10.484375 8.195625 -9.96875 7.39125 -9.4375 6.5625 C-6.36794243 3.33552922 -4.35131541 3.25103743 0 3 C0 2.01 0 1.02 0 0 Z M-5 7 C-6.03013277 8.64821244 -7.03114628 10.31503702 -8 12 C-6.68 13.65 -5.36 15.3 -4 17 C-4 13.7 -4 10.4 -4 7 C-4.33 7 -4.66 7 -5 7 Z M15 7 C15 8.32 15 9.64 15 11 C16.32 11 17.64 11 19 11 C18.67 9.68 18.34 8.36 18 7 C17.01 7 16.02 7 15 7 Z " fill="#B90E0E" transform="translate(144,41)"/>
<path d="M0 0 C1.88996735 3.14994559 1.89349703 6.22882821 2.125 9.875 C1.125 11.875 1.125 11.875 -0.875 13.875 C-0.194375 14.555625 0.48625 15.23625 1.1875 15.9375 C3.125 18.875 3.125 18.875 3.25 22.375 C2.125 25.875 2.125 25.875 -3.875 30.875 C-9.155 30.875 -14.435 30.875 -19.875 30.875 C-19.875 19.985 -19.875 9.095 -19.875 -2.125 C-5.69078947 -3.41447368 -5.69078947 -3.41447368 0 0 Z M-13.875 2.875 C-13.875 5.515 -13.875 8.155 -13.875 10.875 C-9.87245544 10.96681134 -9.87245544 10.96681134 -5.875 10.875 C-4.53095225 9.75663776 -4.53095225 9.75663776 -4.75 6.875 C-4.53095225 3.99336224 -4.53095225 3.99336224 -5.875 2.875 C-8.54558851 2.73384839 -11.19932238 2.83252893 -13.875 2.875 Z M-13.875 15.875 C-13.875 19.175 -13.875 22.475 -13.875 25.875 C-8.55329506 26.17062367 -8.55329506 26.17062367 -3.875 23.875 C-3.375 20.875 -3.375 20.875 -3.875 17.875 C-7.5191774 15.4455484 -9.58741272 15.71320425 -13.875 15.875 Z " fill="#0052B0" transform="translate(83.875,32.125)"/>
<path d="M0 0 C3.66270299 1.664865 6.48444175 3.85555219 9 7 C9.89679254 10.07471728 10.35514898 12.02334031 9.25 15.0625 C8.8375 15.701875 8.425 16.34125 8 17 C7.505 17.886875 7.01 18.77375 6.5 19.6875 C5 22 5 22 3 23 C3 23.99 3 24.98 3 26 C1.68 26.33 0.36 26.66 -1 27 C-1.33 23.37 -1.66 19.74 -2 16 C-2.99 16 -3.98 16 -5 16 C-5.33 19.63 -5.66 23.26 -6 27 C-10.95433585 25.76141604 -13.18645731 24.27241667 -16 20 C-17.24283781 16.27148658 -17.5280726 12.87253239 -17 9 C-13.20477323 1.55011042 -8.15597629 -1.22671188 0 0 Z " fill="#F1EDF1" transform="translate(49,35)"/>
<path d="M0 0 C0.33 0 0.66 0 1 0 C1.12375 0.66386719 1.2475 1.32773437 1.375 2.01171875 C2.60155817 7.47780024 2.60155817 7.47780024 5.98046875 11.77734375 C8.4050929 13.30381875 8.4050929 13.30381875 12 15 C12 11.04 12 7.08 12 3 C13.65 3 15.3 3 17 3 C17 7.62 17 12.24 17 17 C17.99 17 18.98 17 20 17 C20 17.66 20 18.32 20 19 C18.20841511 19.02696365 16.41671527 19.04637917 14.625 19.0625 C13.62726562 19.07410156 12.62953125 19.08570312 11.6015625 19.09765625 C9 19 9 19 7 18 C6.20335937 18.99580078 6.20335937 18.99580078 5.390625 20.01171875 C1.92708333 24.34114583 -1.53645833 28.67057292 -5 33 C-6.65 32.67 -8.3 32.34 -10 32 C-9.41246271 28.9249292 -8.54526011 27.12098863 -6.49609375 24.765625 C-6.00302734 24.19199219 -5.50996094 23.61835937 -5.00195312 23.02734375 C-4.48568359 22.44082031 -3.96941406 21.85429688 -3.4375 21.25 C-2.91736328 20.64800781 -2.39722656 20.04601562 -1.86132812 19.42578125 C-0.58043726 17.94511841 0.70896312 16.47182458 2 15 C1.360625 14.38125 0.72125 13.7625 0.0625 13.125 C-2 11 -2 11 -3 9 C-2.44140625 6.8359375 -2.44140625 6.8359375 -1.5625 4.375 C-1.27503906 3.55773438 -0.98757812 2.74046875 -0.69140625 1.8984375 C-0.46324219 1.27195313 -0.23507813 0.64546875 0 0 Z " fill="#0B54B0" transform="translate(31,47)"/>
<path d="M0 0 C0.8971875 0.309375 0.8971875 0.309375 1.8125 0.625 C0.8225 2.11 0.8225 2.11 -0.1875 3.625 C0.09524138 6.93586259 0.09524138 6.93586259 1.8125 9.625 C1.88569621 12.32154854 1.90492537 14.99191458 1.875 17.6875 C1.87048828 18.44611328 1.86597656 19.20472656 1.86132812 19.98632812 C1.8495068 21.86591871 1.83157078 23.74546899 1.8125 25.625 C-3.11184153 24.16319137 -5.31973525 22.97975388 -8.1875 18.625 C-9.42883624 14.90099129 -9.72861486 11.49324 -9.1875 7.625 C-4.66327519 -0.7994186 -4.66327519 -0.7994186 0 0 Z " fill="#F7F9FC" transform="translate(41.1875,36.375)"/>
<path d="M0 0 C3.28006773 3.01198527 6.77503441 6.59459872 7.203125 11.171875 C7.31875976 17.53178661 6.88385783 21.84555798 2.41796875 26.73046875 C0.67982525 28.38530254 -0.93532653 29.77565315 -3 31 C-5.9375 30.875 -5.9375 30.875 -8 30 C-7.505 28.515 -7.505 28.515 -7 27 C-6.01 26.67 -5.02 26.34 -4 26 C-4 25.01 -4 24.02 -4 23 C-3.54625 22.608125 -3.0925 22.21625 -2.625 21.8125 C-0.07082342 18.96361074 0.16380557 15.70314676 1 12 C1.33 11.67 1.66 11.34 2 11 C-0.53672572 6.53053087 -2.73077497 3.84615002 -7 1 C-4.26760135 -0.36619933 -3.04371875 -0.55340341 0 0 Z " fill="#0455BB" transform="translate(56,34)"/>
<path d="M0 0 C9.47682581 0.6153783 9.47682581 0.6153783 11.84375 2.35546875 C13 4 13 4 12.6875 7 C12.460625 7.99 12.23375 8.98 12 10 C11.84188612 13.05270463 11.84188612 13.05270463 13 16 C13 16.66 13 17.32 13 18 C11.68 18 10.36 18 9 18 C8.01 16.02 7.02 14.04 6 12 C5.67 13.98 5.34 15.96 5 18 C3.68 18 2.36 18 1 18 C0.67 12.06 0.34 6.12 0 0 Z M5 4 C5 5.32 5 6.64 5 8 C6.32 8 7.64 8 9 8 C8.67 6.68 8.34 5.36 8 4 C7.01 4 6.02 4 5 4 Z " fill="#073470" transform="translate(154,44)"/>
<path d="M0 0 C3.96 0.33 7.92 0.66 12 1 C12 1.99 12 2.98 12 4 C9.69 4 7.38 4 5 4 C5 5.32 5 6.64 5 8 C7.31 8 9.62 8 12 8 C12 8.99 12 9.98 12 11 C9.69 11 7.38 11 5 11 C5.33 11.99 5.66 12.98 6 14 C9.465 13.505 9.465 13.505 13 13 C12.67 14.65 12.34 16.3 12 18 C8.04 18.33 4.08 18.66 0 19 C0 12.73 0 6.46 0 0 Z " fill="#004CA3" transform="translate(101,44)"/>
<path d="M0 0 C5.4611399 0.35233161 5.4611399 0.35233161 8 1 C9.5 3.0625 9.5 3.0625 10 5 C9.01 5 8.02 5 7 5 C5.66018514 5.3062434 4.32488113 5.63451555 3 6 C3.66 6 4.32 6 5 6 C5 6.66 5 7.32 5 8 C5.61875 8.12375 6.2375 8.2475 6.875 8.375 C9 9 9 9 11 11 C10.8125 13.5 10.8125 13.5 10 16 C6.49223439 18.3385104 4.18333056 18.77589301 0 19 C-1.9375 17.5625 -1.9375 17.5625 -3 16 C-2.34 15.01 -1.68 14.02 -1 13 C1.31 13.33 3.62 13.66 6 14 C6 13.34 6 12.68 6 12 C3.69 11.01 1.38 10.02 -1 9 C-1.07427838 5.65747276 -1.06546953 3.1964086 0 0 Z " fill="#004EA7" transform="translate(90,44)"/>
<path d="M0 0 C0.66 1.32 1.32 2.64 2 4 C-1.06890187 5.53445094 -3.70094266 4.54984289 -7 4 C-7 5.32 -7 6.64 -7 8 C-4.69 8 -2.38 8 0 8 C0 8.99 0 9.98 0 11 C-2.31 11 -4.62 11 -7 11 C-7 11.99 -7 12.98 -7 14 C-4.36 13.67 -1.72 13.34 1 13 C1.33 13.66 1.66 14.32 2 15 C1.01 16.485 1.01 16.485 0 18 C-2.3828125 18.29296875 -2.3828125 18.29296875 -5.125 18.1875 C-7.538125 18.0946875 -7.538125 18.0946875 -10 18 C-10 12.39 -10 6.78 -10 1 C-6.7 0.67 -3.4 0.34 0 0 Z " fill="#004698" transform="translate(126,44)"/>
<path d="M0 0 C0.99 0 1.98 0 3 0 C3.33 1.65 3.66 3.3 4 5 C5.32 3.35 6.64 1.7 8 0 C9.32 0.33 10.64 0.66 12 1 C10.68 3.31 9.36 5.62 8 8 C8.495 8.763125 8.99 9.52625 9.5 10.3125 C11 13 11 13 11 16 C8.11424181 15.60196439 7.17810487 15.20990931 5.25 12.9375 C4.8375 12.298125 4.425 11.65875 4 11 C4 13.31 4 15.62 4 18 C2.68 17.67 1.36 17.34 0 17 C0 11.39 0 5.78 0 0 Z " fill="#004FAD" transform="translate(129,45)"/>
<path d="M0 0 C1.07507813 0.17789063 1.07507813 0.17789063 2.171875 0.359375 C1.74400079 5.26627291 -0.74901315 8.11541482 -3.890625 11.671875 C-4.36306641 12.22166016 -4.83550781 12.77144531 -5.32226562 13.33789062 C-6.482506 14.6856446 -7.65419724 16.02352617 -8.828125 17.359375 C-10.478125 17.029375 -12.128125 16.699375 -13.828125 16.359375 C-13.29220235 12.11321858 -10.71413662 9.29392083 -8.078125 6.109375 C-7.64757812 5.55507812 -7.21703125 5.00078125 -6.7734375 4.4296875 C-4.59917144 1.78671738 -3.46781743 0.44066188 0 0 Z " fill="#0054B4" transform="translate(34.828125,62.640625)"/>
<path d="M0 0 C2.32421875 1.53515625 2.32421875 1.53515625 4 3 C3.05898438 3.09796875 2.11796875 3.1959375 1.1484375 3.296875 C-7.1194977 4.28971194 -12.07780242 5.07780242 -18 11 C-18.99 11 -19.98 11 -21 11 C-20.66738557 8.04174746 -20.37948529 6.40684353 -18.3203125 4.19921875 C-12.40812349 0.12801386 -7.17379696 -1.45735403 0 0 Z " fill="#0254B7" transform="translate(51,31)"/>
<path d="M0 0 C2.31 0.66 4.62 1.32 7 2 C7.33 3.32 7.66 4.64 8 6 C5.03 6 2.06 6 -1 6 C-1 10.62 -1 15.24 -1 20 C-3.31 20.66 -5.62 21.32 -8 22 C-8 21.01 -8 20.02 -8 19 C-6.68 19.33 -5.36 19.66 -4 20 C-4.33 15.38 -4.66 10.76 -5 6 C-3.35 5.01 -1.7 4.02 0 3 C0 2.01 0 1.02 0 0 Z " fill="#9D0F14" transform="translate(144,41)"/>
<path d="M0 0 C2.4375 0.8125 2.4375 0.8125 4.4375 3.8125 C3.89695946 8.35304054 3.89695946 8.35304054 2.4375 9.8125 C-1 10.0625 -1 10.0625 -4.5625 9.8125 C-6.5625 6.8125 -6.5625 6.8125 -6.375 4.25 C-5.20805875 0.74917625 -3.68035317 -0.26929413 0 0 Z " fill="#1059BA" transform="translate(46.5625,36.1875)"/>
<path d="M0 0 C0.33 0 0.66 0 1 0 C1.58243451 10.91525424 1.58243451 10.91525424 -2 16 C-4.14042324 18.34125308 -6.26273131 20.37680566 -9 22 C-11.9375 21.875 -11.9375 21.875 -14 21 C-13.505 19.515 -13.505 19.515 -13 18 C-12.0925 17.649375 -11.185 17.29875 -10.25 16.9375 C-5.49680494 14.10386448 -4.10832298 9.97228384 -2 5 C-1.67 5 -1.34 5 -1 5 C-0.67 3.35 -0.34 1.7 0 0 Z " fill="#0354BB" transform="translate(62,43)"/>
<path d="M0 0 C2.97 0 5.94 0 9 0 C9 0.66 9 1.32 9 2 C7.02 2 5.04 2 3 2 C3 2.99 3 3.98 3 5 C4.98 5 6.96 5 9 5 C9 5.66 9 6.32 9 7 C7.02 7 5.04 7 3 7 C3 8.65 3 10.3 3 12 C4.98 12 6.96 12 9 12 C9 12.66 9 13.32 9 14 C6.03 14 3.06 14 0 14 C0 9.38 0 4.76 0 0 Z " fill="#F2BCBC" transform="translate(143,47)"/>
<path d="M0 0 C1.65 0 3.3 0 5 0 C4.01 0.66 3.02 1.32 2 2 C1.74969023 4.58380177 1.74969023 4.58380177 2 7 C4.31 7 6.62 7 9 7 C9.144375 7.598125 9.28875 8.19625 9.4375 8.8125 C9.8872439 10.56150404 10.42892341 12.28677023 11 14 C11 14.66 11 15.32 11 16 C9.68 16 8.36 16 7 16 C6.54625 15.030625 6.0925 14.06125 5.625 13.0625 C4.34213779 9.92920418 4.34213779 9.92920418 2 9 C2 10.98 2 12.96 2 15 C1.34 15 0.68 15 0 15 C0 10.05 0 5.1 0 0 Z " fill="#0062D3" transform="translate(156,46)"/>
<path d="M0 0 C0.33 0 0.66 0 1 0 C1.33 2.64 1.66 5.28 2 8 C4.475 8.99 4.475 8.99 7 10 C5.94513949 16.12096691 4.34782974 20.75506674 1 26 C0.67 26 0.34 26 0 26 C0 17.42 0 8.84 0 0 Z " fill="#013676" transform="translate(26,31)"/>
<path d="M0 0 C1.65 0 3.3 0 5 0 C5.08082094 1.95766281 5.13910778 3.91626728 5.1875 5.875 C5.22230469 6.96554688 5.25710937 8.05609375 5.29296875 9.1796875 C5.19628906 10.11039063 5.09960938 11.04109375 5 12 C4.01 12.66 3.02 13.32 2 14 C0 12 0 12 -0.1953125 9.1796875 C-0.17210937 8.08914062 -0.14890625 6.99859375 -0.125 5.875 C-0.10695312 4.77929688 -0.08890625 3.68359375 -0.0703125 2.5546875 C-0.04710937 1.71164063 -0.02390625 0.86859375 0 0 Z " fill="#CE0D0D" transform="translate(43,50)"/>
<path d="M0 0 C3.96 0.33 7.92 0.66 12 1 C12 1.33 12 1.66 12 2 C8.7 2 5.4 2 2 2 C2 6.95 2 11.9 2 17 C2.99 16.34 3.98 15.68 5 15 C7.32108669 14.29187186 9.65377147 13.61975848 12 13 C12.33 13.66 12.66 14.32 13 15 C12.67 15.99 12.34 16.98 12 18 C8.04 18.33 4.08 18.66 0 19 C0 12.73 0 6.46 0 0 Z " fill="#001A37" transform="translate(101,44)"/>
<path d="M0 0 C1.7492214 -0.08142927 3.49954542 -0.13938541 5.25 -0.1875 C6.22453125 -0.22230469 7.1990625 -0.25710937 8.203125 -0.29296875 C11.37468742 0.03924798 12.67040307 0.88672279 15 3 C11.84493858 3.93619813 9.03413498 4.1057123 5.75 4.0625 C4.85796875 4.05347656 3.9659375 4.04445313 3.046875 4.03515625 C2.37140625 4.02355469 1.6959375 4.01195312 1 4 C0.67 2.68 0.34 1.36 0 0 Z " fill="#014EAD" transform="translate(40,31)"/>
<path d="M0 0 C3.3 0.33 6.6 0.66 10 1 C10 1.99 10 2.98 10 4 C8.56853622 4.41713515 7.12941114 4.8080497 5.6875 5.1875 C4.88699219 5.40792969 4.08648437 5.62835938 3.26171875 5.85546875 C1 6 1 6 -0.79296875 4.55078125 C-1.19128906 4.03902344 -1.58960937 3.52726562 -2 3 C-1.34 2.01 -0.68 1.02 0 0 Z " fill="#004693" transform="translate(89,57)"/>
<path d="M0 0 C3.3 0 6.6 0 10 0 C10 0.33 10 0.66 10 1 C7.36 1 4.72 1 2 1 C1.80185739 7.08408472 1.80185739 7.08408472 3 13 C4.65 13.33 6.3 13.66 8 14 C8 14.33 8 14.66 8 15 C5.36 15 2.72 15 0 15 C0 10.05 0 5.1 0 0 Z " fill="#0062D3" transform="translate(103,46)"/>
<path d="M0 0 C0.33 0 0.66 0 1 0 C1.3690205 10.55808656 1.3690205 10.55808656 -1 15 C-1.33 14.34 -1.66 13.68 -2 13 C-2.99 12.67 -3.98 12.34 -5 12 C-4.01 9.69 -3.02 7.38 -2 5 C-1.67 5 -1.34 5 -1 5 C-0.67 3.35 -0.34 1.7 0 0 Z " fill="#024CA9" transform="translate(62,43)"/>
<path d="M0 0 C0.66 0.66 1.32 1.32 2 2 C1.91471238 6.52024387 1.44279914 8.49240099 -1.5625 11.9375 C-2.366875 12.618125 -3.17125 13.29875 -4 14 C-4.66 13.34 -5.32 12.68 -6 12 C-5.38125 11.505 -4.7625 11.01 -4.125 10.5 C-1.25011778 7.11778563 -0.86548583 4.32742915 0 0 Z " fill="#5282CB" transform="translate(57,46)"/>
<path d="M0 0 C1.875 2.375 1.875 2.375 3 5 C2.67 5.66 2.34 6.32 2 7 C-1.43595166 5.47291037 -4.11912454 3.40072955 -7 1 C-4.39722303 -0.30138849 -2.88185107 -0.4217343 0 0 Z " fill="#115CBD" transform="translate(56,34)"/>
<path d="M0 0 C1.9375 0.375 1.9375 0.375 4 1 C5.17608893 3.35217785 6 5.34600846 6 8 C4.68 8 3.36 8 2 8 C0.875 3.25 0.875 3.25 2 1 C1.34 0.67 0.68 0.34 0 0 Z " fill="#004590" transform="translate(161,54)"/>
<path d="M0 0 C2.31 0.66 4.62 1.32 7 2 C7 2.99 7 3.98 7 5 C4.69 5 2.38 5 0 5 C0 3.35 0 1.7 0 0 Z " fill="#063F89" transform="translate(144,41)"/>
<path d="M0 0 C2 1.8125 2 1.8125 4 4 C4 4.99 4 5.98 4 7 C2.68 6.67 1.36 6.34 0 6 C-0.38218767 4.34385343 -0.71395102 2.67542976 -1 1 C-0.67 0.67 -0.34 0.34 0 0 Z " fill="#0055B8" transform="translate(136,54)"/>
<path d="M0 0 C0.33 0 0.66 0 1 0 C1.66 2.97 2.32 5.94 3 9 C1.35 8.67 -0.3 8.34 -2 8 C-1.47731534 5.23723823 -0.89130413 2.6739124 0 0 Z " fill="#125EBF" transform="translate(31,47)"/>
<path d="M0 0 C0.33 0.66 0.66 1.32 1 2 C3.52733235 2.65555119 3.52733235 2.65555119 6 3 C6 3.66 6 4.32 6 5 C4.35 5.66 2.7 6.32 1 7 C0 6 0 6 -0.0625 2.9375 C-0.041875 1.968125 -0.02125 0.99875 0 0 Z " fill="#004596" transform="translate(89,47)"/>
<path d="M0 0 C1.65 0.33 3.3 0.66 5 1 C4.67 2.65 4.34 4.3 4 6 C2 4.6875 2 4.6875 0 3 C0 2.01 0 1.02 0 0 Z " fill="#00499C" transform="translate(29,55)"/>
<path d="M0 0 C2.35171131 0.59861742 4.6859378 1.26924352 7 2 C7.33 2.66 7.66 3.32 8 4 C6.02 4 4.04 4 2 4 C2 3.34 2 2.68 2 2 C1.34 2 0.68 2 0 2 C0 1.34 0 0.68 0 0 Z " fill="#1556B6" transform="translate(37,60)"/>
<path d="M0 0 C0.33 0.66 0.66 1.32 1 2 C0.67 2.66 0.34 3.32 0 4 C-2.31 3.67 -4.62 3.34 -7 3 C-6.67 2.34 -6.34 1.68 -6 1 C-2.9375 0.375 -2.9375 0.375 0 0 Z " fill="#003C86" transform="translate(113,57)"/>
<path d="M0 0 C0.99 0.99 1.98 1.98 3 3 C2.67 3.66 2.34 4.32 2 5 C1.01 3.68 0.02 2.36 -1 1 C-0.67 0.67 -0.34 0.34 0 0 Z " fill="#000000" transform="translate(84,44)"/>
<path d="M0 0 C0 0.99 0 1.98 0 3 C-0.99 3 -1.98 3 -3 3 C-2.01 2.01 -1.02 1.02 0 0 Z " fill="#000000" transform="translate(25,61)"/>
<path d="M0 0 C0 0.99 0 1.98 0 3 C-0.99 3.495 -0.99 3.495 -2 4 C-1.34 2.68 -0.68 1.36 0 0 Z " fill="#000000" transform="translate(31,74)"/>
<path d="M0 0 C0 0.99 0 1.98 0 3 C-0.99 3.495 -0.99 3.495 -2 4 C-1.34 2.68 -0.68 1.36 0 0 Z " fill="#000000" transform="translate(36,68)"/>
<path d="M0 0 C0.66 0.33 1.32 0.66 2 1 C0.02 1.99 0.02 1.99 -2 3 C-1.34 2.01 -0.68 1.02 0 0 Z " fill="#000000" transform="translate(57,62)"/>
<path d="M0 0 C0 0.99 0 1.98 0 3 C-0.99 3.495 -0.99 3.495 -2 4 C-1.34 2.68 -0.68 1.36 0 0 Z " fill="#000000" transform="translate(61,58)"/>
<path d="M0 0 C0.66 1.32 1.32 2.64 2 4 C1.01 3.01 0.02 2.02 -1 1 C-0.67 0.67 -0.34 0.34 0 0 Z " fill="#000000" transform="translate(99,50)"/>
<path d="M0 0 C0.99 0.33 1.98 0.66 3 1 C2.67 1.66 2.34 2.32 2 3 C1.34 2.01 0.68 1.02 0 0 Z " fill="#000000" transform="translate(82,30)"/>
<path d="M0 0 C0 3 0 3 0 3 Z " fill="#000000" transform="translate(22,72)"/>
<path d="M0 0 C0 3 0 3 0 3 Z " fill="#000000" transform="translate(27,66)"/>
<path d="M0 0 C0.66 0.33 1.32 0.66 2 1 C1.01 1 0.02 1 -1 1 C-0.67 0.67 -0.34 0.34 0 0 Z " fill="#000000" transform="translate(83,61)"/>
<path d="M0 0 C0 3 0 3 0 3 Z " fill="#000000" transform="translate(86,58)"/>
<path d="M0 0 C0.33 0.66 0.66 1.32 1 2 C0.01 1.67 -0.98 1.34 -2 1 C-1.34 0.67 -0.68 0.34 0 0 Z " fill="#000000" transform="translate(95,56)"/>
<path d="M0 0 C0.99 0.33 1.98 0.66 3 1 C2.01 1 1.02 1 0 1 C0 0.67 0 0.34 0 0 Z " fill="#000000" transform="translate(90,55)"/>
<path d="M0 0 C0.99 0.495 0.99 0.495 2 1 C1.67 1.66 1.34 2.32 1 3 C0.67 2.01 0.34 1.02 0 0 Z " fill="#000000" transform="translate(59,35)"/>
<path d="M0 0 C0.99 0.33 1.98 0.66 3 1 C2.01 1 1.02 1 0 1 C0 0.67 0 0.34 0 0 Z " fill="#000000" transform="translate(56,33)"/>
<path d="M0 0 C0.66 0.33 1.32 0.66 2 1 C1.01 1 0.02 1 -1 1 C-0.67 0.67 -0.34 0.34 0 0 Z " fill="#000000" transform="translate(34,32)"/>
<path d="M0 0 C0.66 0.66 1.32 1.32 2 2 C1.34 2 0.68 2 0 2 C0 1.34 0 0.68 0 0 Z " fill="#000000" transform="translate(7,62)"/>
<path d="M0 0 C3 1 3 1 3 1 Z " fill="#000000" transform="translate(126,62)"/>
<path d="M0 0 C0.66 0.66 1.32 1.32 2 2 C1.34 2 0.68 2 0 2 C0 1.34 0 0.68 0 0 Z " fill="#000000" transform="translate(13,56)"/>
<path d="M0 0 C0.33 0.66 0.66 1.32 1 2 C0.34 1.67 -0.32 1.34 -1 1 C-0.67 0.67 -0.34 0.34 0 0 Z " fill="#000000" transform="translate(18,56)"/>
<path d="M0 0 C0.66 0 1.32 0 2 0 C1.67 0.66 1.34 1.32 1 2 C0.67 1.34 0.34 0.68 0 0 Z " fill="#000000" transform="translate(165,45)"/>
<path d="M0 0 C0.66 0 1.32 0 2 0 C1.67 0.66 1.34 1.32 1 2 C0.67 1.34 0.34 0.68 0 0 Z " fill="#000000" transform="translate(99,45)"/>
<path d="M0 0 C0.66 0 1.32 0 2 0 C1.67 0.66 1.34 1.32 1 2 C0.67 1.34 0.34 0.68 0 0 Z " fill="#000000" transform="translate(76,36)"/>
<path d="M0 0 C2 1 2 1 2 1 Z " fill="#000000" transform="translate(53,65)"/>
<path d="M0 0 C2 1 2 1 2 1 Z " fill="#000000" transform="translate(9,64)"/>
<path d="" fill="#000000" transform="translate(0,0)"/>
<path d="" fill="#000000" transform="translate(0,0)"/>
<path d="" fill="#000000" transform="translate(0,0)"/>
<path d="" fill="#000000" transform="translate(0,0)"/>
<path d="" fill="#000000" transform="translate(0,0)"/>
<path d="" fill="#000000" transform="translate(0,0)"/>
<path d="" fill="#000000" transform="translate(0,0)"/>
<path d="" fill="#000000" transform="translate(0,0)"/>
<path d="" fill="#000000" transform="translate(0,0)"/>
<path d="" fill="#000000" transform="translate(0,0)"/>
<path d="" fill="#000000" transform="translate(0,0)"/>
<path d="" fill="#000000" transform="translate(0,0)"/>
<path d="" fill="#000000" transform="translate(0,0)"/>
<path d="M0 0 C2 1 2 1 2 1 Z " fill="#000000" transform="translate(36,31)"/>
<path d="M0 0 C2 1 2 1 2 1 Z " fill="#000000" transform="translate(80,29)"/>
<path d="" fill="#000000" transform="translate(0,0)"/>
<path d="" fill="#000000" transform="translate(0,0)"/>
<path d="" fill="#000000" transform="translate(0,0)"/>
<path d="" fill="#000000" transform="translate(0,0)"/>
<path d="" fill="#000000" transform="translate(0,0)"/>
<path d="" fill="#000000" transform="translate(0,0)"/>
<path d="" fill="#000000" transform="translate(0,0)"/>
<path d="" fill="#000000" transform="translate(0,0)"/>
<path d="" fill="#000000" transform="translate(0,0)"/>
<path d="" fill="#000000" transform="translate(0,0)"/>
<path d="" fill="#000000" transform="translate(0,0)"/>
<path d="" fill="#000000" transform="translate(0,0)"/>
<path d="" fill="#000000" transform="translate(0,0)"/>
<path d="" fill="#000000" transform="translate(0,0)"/>
<path d="" fill="#000000" transform="translate(0,0)"/>
<path d="" fill="#000000" transform="translate(0,0)"/>
<path d="" fill="#000000" transform="translate(0,0)"/>
<path d="" fill="#000000" transform="translate(0,0)"/>
<path d="" fill="#000000" transform="translate(0,0)"/>
<path d="" fill="#000000" transform="translate(0,0)"/>
<path d="" fill="#000000" transform="translate(0,0)"/>
<path d="" fill="#000000" transform="translate(0,0)"/>
<path d="" fill="#000000" transform="translate(0,0)"/>
<path d="" fill="#000000" transform="translate(0,0)"/>
<path d="" fill="#000000" transform="translate(0,0)"/>
<path d="" fill="#000000" transform="translate(0,0)"/>
<path d="" fill="#000000" transform="translate(0,0)"/>
<path d="" fill="#000000" transform="translate(0,0)"/>
<path d="" fill="#000000" transform="translate(0,0)"/>
<path d="" fill="#000000" transform="translate(0,0)"/>
<path d="" fill="#000000" transform="translate(0,0)"/>
<path d="" fill="#000000" transform="translate(0,0)"/>
<path d="" fill="#000000" transform="translate(0,0)"/>
<path d="" fill="#000000" transform="translate(0,0)"/>
<path d="" fill="#000000" transform="translate(0,0)"/>
<path d="" fill="#000000" transform="translate(0,0)"/>
<path d="" fill="#000000" transform="translate(0,0)"/>
<path d="" fill="#000000" transform="translate(0,0)"/>
<path d="" fill="#000000" transform="translate(0,0)"/>
<path d="" fill="#000000" transform="translate(0,0)"/>
<path d="" fill="#000000" transform="translate(0,0)"/>
<path d="" fill="#000000" transform="translate(0,0)"/>
<path d="" fill="#000000" transform="translate(0,0)"/>
<path d="" fill="#000000" transform="translate(0,0)"/>
<path d="" fill="#000000" transform="translate(0,0)"/>
<path d="" fill="#000000" transform="translate(0,0)"/>
<path d="" fill="#000000" transform="translate(0,0)"/>
<path d="" fill="#000000" transform="translate(0,0)"/>
<path d="" fill="#000000" transform="translate(0,0)"/>
<path d="" fill="#000000" transform="translate(0,0)"/>
<path d="" fill="#000000" transform="translate(0,0)"/>
<path d="" fill="#000000" transform="translate(0,0)"/>
<path d="" fill="#000000" transform="translate(0,0)"/>
<path d="" fill="#000000" transform="translate(0,0)"/>
<path d="" fill="#000000" transform="translate(0,0)"/>
<path d="" fill="#000000" transform="translate(0,0)"/>
<path d="" fill="#000000" transform="translate(0,0)"/>
<path d="" fill="#000000" transform="translate(0,0)"/>
<path d="" fill="#000000" transform="translate(0,0)"/>
<path d="" fill="#000000" transform="translate(0,0)"/>
<path d="" fill="#000000" transform="translate(0,0)"/>
<path d="" fill="#000000" transform="translate(0,0)"/>
<path d="" fill="#000000" transform="translate(0,0)"/>
<path d="" fill="#000000" transform="translate(0,0)"/>
<path d="" fill="#000000" transform="translate(0,0)"/>
<path d="" fill="#000000" transform="translate(0,0)"/>
<path d="" fill="#000000" transform="translate(0,0)"/>
<path d="" fill="#000000" transform="translate(0,0)"/>
<path d="" fill="#000000" transform="translate(0,0)"/>
<path d="" fill="#000000" transform="translate(0,0)"/>
<path d="" fill="#000000" transform="translate(0,0)"/>
<path d="" fill="#000000" transform="translate(0,0)"/>
<path d="" fill="#000000" transform="translate(0,0)"/>
<path d="" fill="#000000" transform="translate(0,0)"/>
<path d="" fill="#000000" transform="translate(0,0)"/>
<path d="" fill="#000000" transform="translate(0,0)"/>
<path d="" fill="#000000" transform="translate(0,0)"/>
<path d="" fill="#000000" transform="translate(0,0)"/>
<path d="" fill="#000000" transform="translate(0,0)"/>
<path d="" fill="#000000" transform="translate(0,0)"/>
<path d="" fill="#000000" transform="translate(0,0)"/>
</svg>
