<svg width="784" height="390" viewBox="0 0 784 390" fill="none" xmlns="http://www.w3.org/2000/svg">
<g clip-path="url(#clip0_7_2)" filter="url(#filter0_dd_7_2)">
<circle cx="197.615" cy="225" r="67" fill="white" stroke="#0056B9" stroke-width="16"/>
<rect x="146.772" y="284.86" width="20" height="88.3216" rx="10" transform="rotate(40 146.772 284.86)" fill="#0056B9"/>
<path d="M183.615 217L198.248 232.9L211.637 217.589L198.248 221.122L183.615 217Z" fill="#CB0303"/>
<path d="M187.61 227.904L198.248 237.022L208.303 227.904L209.811 281.493L198.248 296.5L186.685 281.493L187.61 227.904Z" fill="#CB0303"/>
<path d="M183.615 217L198.248 232.9L211.637 217.589L198.248 221.122L183.615 217Z" stroke="white"/>
<path d="M187.61 227.904L198.248 237.022L208.303 227.904L209.811 281.493L198.248 296.5L186.685 281.493L187.61 227.904Z" stroke="white"/>
<circle cx="198.115" cy="194.5" r="22.5" fill="#0056B9"/>
<path d="M247.678 213.413C249.198 212.663 251.046 213.336 251.6 214.938C253.178 219.505 253.976 224.36 253.953 229.297C253.924 235.296 252.683 241.284 250.308 246.885C247.932 252.486 244.474 257.576 240.151 261.836C236.572 265.363 232.464 268.256 228.011 270.396C226.505 271.12 224.748 270.299 224.216 268.715V268.715C223.725 267.248 224.471 265.663 225.863 264.989C229.671 263.147 233.185 260.665 236.249 257.645C239.98 253.969 242.965 249.575 245.015 244.741C247.066 239.907 248.137 234.738 248.162 229.56C248.182 225.34 247.506 221.189 246.17 217.28C245.66 215.79 246.266 214.111 247.678 213.413V213.413Z" fill="#0056B9"/>
<path d="M113.6 151.4V253.6C113.6 259.6 112.533 265.067 110.4 270C108.4 274.933 105.467 279.133 101.6 282.6C97.8667 286.067 93.3333 288.733 88 290.6C82.6667 292.467 76.7333 293.4 70.2 293.4C57.9333 293.4 48.1333 290.333 40.8 284.2C33.6 278.067 28.9333 269.6 26.8 258.8L48 254.4C49.2 260.133 51.4667 264.933 54.8 268.8C58.1333 272.667 63.3333 274.6 70.4 274.6C76.9333 274.6 82 272.667 85.6 268.8C89.3333 264.8 91.2 258.733 91.2 250.6V170.2H42.6V151.4H113.6Z" fill="#0056B9"/>
<path d="M281.6 145.4H329.8C342.467 145.4 352.267 148.667 359.2 155.2C366.267 161.733 369.8 170.667 369.8 182C369.8 190.133 367.8 196.6 363.8 201.4C359.8 206.2 354.4 209.6 347.6 211.6V212.6C355.733 214.467 362.267 218.067 367.2 223.4C372.133 228.6 374.6 236 374.6 245.6C374.6 251.333 373.667 256.6 371.8 261.4C369.933 266.2 367.267 270.4 363.8 274C360.333 277.467 356.133 280.2 351.2 282.2C346.4 284.067 341.067 285 335.2 285H281.6V145.4ZM328.4 267.8C335.867 267.8 341.6 266.267 345.6 263.2C349.6 260.133 351.6 255.2 351.6 248.4V241.2C351.6 234.4 349.6 229.467 345.6 226.4C341.6 223.333 335.867 221.8 328.4 221.8H303.6V267.8H328.4ZM325.2 205.4C332.267 205.4 337.6 204.067 341.2 201.4C344.933 198.6 346.8 194 346.8 187.6V180.4C346.8 174 344.933 169.467 341.2 166.8C337.6 164 332.267 162.6 325.2 162.6H303.6V205.4H325.2Z" fill="#0056B9"/>
<path d="M411.224 281.152C405.4 281.152 400.504 280.128 396.536 278.08C392.568 276.032 389.304 273.312 386.744 269.92L393.656 263.296C396.216 266.368 398.936 268.64 401.816 270.112C404.696 271.52 407.96 272.224 411.608 272.224C415.832 272.224 419.064 271.264 421.304 269.344C423.608 267.424 424.76 264.672 424.76 261.088C424.76 258.208 423.928 256 422.264 254.464C420.6 252.864 417.752 251.712 413.72 251.008L406.424 249.856C403.224 249.344 400.536 248.512 398.36 247.36C396.184 246.144 394.424 244.736 393.08 243.136C391.736 241.472 390.744 239.648 390.104 237.664C389.528 235.616 389.24 233.472 389.24 231.232C389.24 224.896 391.288 220.096 395.384 216.832C399.48 213.504 405.112 211.84 412.28 211.84C417.592 211.84 422.104 212.704 425.816 214.432C429.592 216.096 432.632 218.464 434.936 221.536L428.216 228.256C426.36 226.016 424.152 224.224 421.592 222.88C419.096 221.472 415.992 220.768 412.28 220.768C408.312 220.768 405.272 221.632 403.16 223.36C401.112 225.024 400.088 227.488 400.088 230.752C400.088 233.504 400.888 235.68 402.488 237.28C404.152 238.816 407.064 239.936 411.224 240.64L418.328 241.888C424.344 242.976 428.728 245.184 431.48 248.512C434.232 251.776 435.608 255.776 435.608 260.512C435.608 263.584 435.064 266.4 433.976 268.96C432.952 271.52 431.384 273.696 429.272 275.488C427.224 277.28 424.664 278.688 421.592 279.712C418.584 280.672 415.128 281.152 411.224 281.152ZM448.819 280V212.992H490.771V222.016H459.571V241.504H489.619V250.528H459.571V270.976H490.771V280H448.819ZM506.381 280V212.992H548.333V222.016H517.133V241.504H547.181V250.528H517.133V270.976H548.333V280H506.381ZM581.992 249.184L573.928 259.264V280H563.176V212.992H573.928V245.056H574.408L582.568 233.92L598.984 212.992H611.368L589.288 241.216L612.232 280H599.944L581.992 249.184ZM689.533 280H678.877V212.992H703.933C710.333 212.992 715.197 214.784 718.525 218.368C721.917 221.952 723.613 226.88 723.613 233.152C723.613 238.272 722.365 242.496 719.869 245.824C717.373 249.152 713.789 251.2 709.117 251.968L724.573 280H712.669L698.461 252.928H689.533V280ZM702.397 244.288C709.053 244.288 712.381 241.248 712.381 235.168V231.04C712.381 224.96 709.053 221.92 702.397 221.92H689.533V244.288H702.397Z" fill="#0056B9"/>
<rect x="612" y="214" width="64" height="66" rx="8" fill="#CB0303"/>
<path d="M625.396 277V216.972H662.978V225.056H635.028V242.514H661.946V250.598H635.028V268.916H662.978V277H625.396Z" fill="white"/>
<path d="M632 215V211.5C632 205.425 636.925 200.5 643 200.5V200.5C649.075 200.5 654 205.425 654 211.5V215" stroke="#0056B9" stroke-width="5"/>
</g>
<defs>
<filter id="filter0_dd_7_2" x="-4" y="0" width="792" height="398" filterUnits="userSpaceOnUse" color-interpolation-filters="sRGB">
<feFlood flood-opacity="0" result="BackgroundImageFix"/>
<feColorMatrix in="SourceAlpha" type="matrix" values="0 0 0 0 0 0 0 0 0 0 0 0 0 0 0 0 0 0 127 0" result="hardAlpha"/>
<feOffset dy="4"/>
<feGaussianBlur stdDeviation="2"/>
<feComposite in2="hardAlpha" operator="out"/>
<feColorMatrix type="matrix" values="0 0 0 0 0 0 0 0 0 0 0 0 0 0 0 0 0 0 0.25 0"/>
<feBlend mode="normal" in2="BackgroundImageFix" result="effect1_dropShadow_7_2"/>
<feColorMatrix in="SourceAlpha" type="matrix" values="0 0 0 0 0 0 0 0 0 0 0 0 0 0 0 0 0 0 127 0" result="hardAlpha"/>
<feOffset dy="4"/>
<feGaussianBlur stdDeviation="2"/>
<feComposite in2="hardAlpha" operator="out"/>
<feColorMatrix type="matrix" values="0 0 0 0 0 0 0 0 0 0 0 0 0 0 0 0 0 0 0.25 0"/>
<feBlend mode="normal" in2="effect1_dropShadow_7_2" result="effect2_dropShadow_7_2"/>
<feBlend mode="normal" in="SourceGraphic" in2="effect2_dropShadow_7_2" result="shape"/>
</filter>
<clipPath id="clip0_7_2">
<rect width="784" height="390" fill="white"/>
</clipPath>
</defs>
</svg>
