<?xml version="1.0" encoding="UTF-8"?>
<svg version="1.1" xmlns="http://www.w3.org/2000/svg" width="784" height="376">
<path d="M0 0 C1.638479 0.01353516 1.638479 0.01353516 3.31005859 0.02734375 C24.70043441 0.48373938 42.59739014 9.74677341 57.3125 25.0625 C71.9276519 41.97579416 77.01135694 62.43490268 75.6875 84.4375 C73.01659485 105.23691098 62.35427138 123.32248135 45.875 136.1875 C26.97924331 149.71514399 7.50430789 152.3952083 -15.1796875 150.03515625 C-34.08707995 146.428135 -51.49764267 133.82293245 -62.47265625 118.40234375 C-73.80094573 100.97583489 -77.82901473 81.33126319 -74.125 60.875 C-69.53168417 40.33267087 -58.54569871 22.96714266 -40.70703125 11.4765625 C-27.80201948 3.72464519 -15.05939372 -0.15033555 0 0 Z " fill="#FCFCFD" transform="translate(197.3125,149.5625)"/>
<path d="M0 0 C68.05263158 0 68.05263158 0 79.96875 10.78125 C87.74434269 18.8204221 89.58807796 27.94506558 89.47729492 38.78393555 C89.15869197 46.77234363 86.94387709 54.36895854 81 60 C77.12856011 62.56420044 73.15426196 64.92286902 69 67 C69.92941406 67.4125 70.85882813 67.825 71.81640625 68.25 C81.46217329 72.68585396 88.08050159 76.9560604 92.4375 87.0625 C96.05710111 98.29574482 94.83478254 110.09150767 89.74609375 120.5859375 C84.66348447 129.8094192 77.93278654 135.52725884 68 139 C46.00772566 144.49806859 22.66911751 140 0 140 C0 93.8 0 47.6 0 0 Z M23 18 C23 31.86 23 45.72 23 60 C27.269375 60.061875 31.53875 60.12375 35.9375 60.1875 C37.26515381 60.21481201 38.59280762 60.24212402 39.96069336 60.27026367 C48.30228402 60.32846518 55.41823126 59.98480728 62 54.5 C65.77722052 49.77847435 65.25057713 44.96283951 65.3125 39.1875 C65.34150391 38.29740234 65.37050781 37.40730469 65.40039062 36.49023438 C65.45524264 30.79828268 64.86456491 27.47843082 61 23 C55.27418872 18.49244644 50.73784559 17.86854102 43.60546875 17.90234375 C42.52160889 17.90484131 41.43774902 17.90733887 40.32104492 17.90991211 C38.9569751 17.91901611 37.59290527 17.92812012 36.1875 17.9375 C31.835625 17.958125 27.48375 17.97875 23 18 Z M23 77 C23 91.85 23 106.7 23 122 C28.259375 122.0825 33.51875 122.165 38.9375 122.25 C40.578396 122.28641602 42.21929199 122.32283203 43.90991211 122.36035156 C55.03306048 122.51447782 55.03306048 122.51447782 65 118 C69.90693615 111.98900321 70.20529019 107.09256216 70.25 99.6875 C70.270625 98.84509766 70.29125 98.00269531 70.3125 97.13476562 C70.34469495 91.98759791 69.87357466 88.45095455 67 84 C60.28679846 77.80319858 54.04321336 76.86264065 45.0703125 76.90234375 C43.90773926 76.90484131 42.74516602 76.90733887 41.54736328 76.90991211 C40.0879834 76.91901611 38.62860352 76.92812012 37.125 76.9375 C32.46375 76.958125 27.8025 76.97875 23 77 Z " fill="#0055B8" transform="translate(281,145)"/>
<path d="M0 0 C1.638479 0.01353516 1.638479 0.01353516 3.31005859 0.02734375 C24.70043441 0.48373938 42.59739014 9.74677341 57.3125 25.0625 C71.9276519 41.97579416 77.01135694 62.43490268 75.6875 84.4375 C73.01659485 105.23691098 62.35427138 123.32248135 45.875 136.1875 C26.97924331 149.71514399 7.50430789 152.3952083 -15.1796875 150.03515625 C-34.08707995 146.428135 -51.49764267 133.82293245 -62.47265625 118.40234375 C-73.80094573 100.97583489 -77.82901473 81.33126319 -74.125 60.875 C-69.53168417 40.33267087 -58.54569871 22.96714266 -40.70703125 11.4765625 C-27.80201948 3.72464519 -15.05939372 -0.15033555 0 0 Z M-44.17578125 35.85546875 C-50.52883518 43.53255951 -55.14237079 51.69882098 -57.3125 61.4375 C-57.48305908 62.05616943 -57.65361816 62.67483887 -57.8293457 63.31225586 C-61.29119063 78.5398254 -57.41116011 95.42682648 -49.3125 108.4375 C-46.5399907 112.02635926 -43.53358186 115.24973968 -40.3125 118.4375 C-39.70921875 119.07429688 -39.1059375 119.71109375 -38.484375 120.3671875 C-30.61610649 128.0644067 -19.46407276 131.72827149 -9.3125 135.4375 C-8.3225 136.0975 -7.3325 136.7575 -6.3125 137.4375 C-7.53257944 134.7469472 -7.53257944 134.7469472 -9.3125 132.4375 C-9.40590434 130.81075222 -9.42995171 129.17995949 -9.42602539 127.55053711 C-9.42594986 126.50953354 -9.42587433 125.46852997 -9.42579651 124.39598083 C-9.42063522 123.2637056 -9.41547394 122.13143036 -9.41015625 120.96484375 C-9.4087413 119.81206436 -9.40732635 118.65928497 -9.40586853 117.47157288 C-9.40025005 113.77268936 -9.38769442 110.07386536 -9.375 106.375 C-9.36998738 103.87434983 -9.36542406 101.37369871 -9.36132812 98.87304688 C-9.35027462 92.72784412 -9.33351852 86.58267631 -9.3125 80.4375 C-8.70921875 80.95441406 -8.1059375 81.47132813 -7.484375 82.00390625 C-6.68515625 82.66261719 -5.8859375 83.32132812 -5.0625 84 C-4.27359375 84.66128906 -3.4846875 85.32257813 -2.671875 86.00390625 C-0.45752526 87.66905782 -0.45752526 87.66905782 1.87792969 87.24047852 C4.05556783 86.27417363 5.3128956 85.11037288 6.9375 83.375 C7.45828125 82.82714844 7.9790625 82.27929688 8.515625 81.71484375 C9.09570312 81.08255859 9.09570312 81.08255859 9.6875 80.4375 C10.3004957 98.44098795 10.87197267 116.42066892 10.6875 134.4375 C31.4842277 127.16122555 45.42332382 118.21802502 55.64453125 98.0546875 C60.90123776 84.86370114 60.8818648 67.34674599 55.875 54.08203125 C55.2871875 52.77298828 55.2871875 52.77298828 54.6875 51.4375 C54.336875 50.63699219 53.98625 49.83648437 53.625 49.01171875 C50.43062518 42.58969438 45.68289193 37.51727355 40.6875 32.4375 C40.048125 31.78523438 39.40875 31.13296875 38.75 30.4609375 C27.63730406 19.95017926 13.15929519 15.8340945 -1.85546875 16.21484375 C-18.50060644 17.28690347 -32.57848391 23.6335414 -44.17578125 35.85546875 Z " fill="#0357B9" transform="translate(197.3125,149.5625)"/>
<path d="M0 0 C23.76 0 47.52 0 72 0 C72.12032643 27.05116363 72.12032643 27.05116363 72.14648438 38.61328125 C72.1643932 46.49176115 72.18554269 54.37013609 72.22631836 62.24853516 C72.2589984 68.60277072 72.27687136 74.95689367 72.28463173 81.31120682 C72.29015969 83.73120521 72.30095438 86.15119768 72.31719017 88.57114792 C72.33907893 91.96992901 72.34196209 95.36824921 72.34057617 98.76708984 C72.351362 99.75971832 72.36214783 100.7523468 72.3732605 101.77505493 C72.32366391 113.07144914 69.12860063 122.35853931 61.5 130.75 C60.675 131.4925 59.85 132.235 59 133 C58.2575 133.680625 57.515 134.36125 56.75 135.0625 C45.40743367 143.05385355 31.2025876 144.66399345 17.71875 142.46484375 C5.89414763 139.73264396 -3.60940433 134.6770377 -10.3125 124.25 C-13.22604589 119.08976886 -14.75031033 113.76611197 -16 108 C-8.51369074 105.28756911 -1.01458058 103 7 103 C7.36351562 104.10408203 7.36351562 104.10408203 7.734375 105.23046875 C10.86863562 114.47477881 10.86863562 114.47477881 18 120.8125 C24.39615917 123.2059015 32.15117959 123.17882972 38.4375 120.5 C42.63442299 118.03430774 45.15292614 114.45517386 47 110 C47.99915777 105.20174482 48.16853601 100.49034462 48.20532227 95.60791016 C48.21522186 94.78773407 48.22512146 93.96755798 48.23532104 93.12252808 C48.2667542 90.4280683 48.29162111 87.73359093 48.31640625 85.0390625 C48.3369915 83.16433266 48.35798838 81.2896073 48.37937927 79.41488647 C48.43443769 74.49289589 48.48391822 69.57086455 48.53222656 64.64880371 C48.59141809 58.73657293 48.65755635 52.82441626 48.72252655 46.9122467 C48.82033172 37.94154326 48.90932749 28.97079115 49 20 C32.83 20 16.66 20 0 20 C0 13.4 0 6.8 0 0 Z " fill="#0055B8" transform="translate(42,151)"/>
<path d="M0 0 C4.94277006 2.33658221 7.15265384 4.8684829 9 10 C9.04399913 11.99951596 9.05012353 14.00062819 9 16 C10.03640625 15.95359375 11.0728125 15.9071875 12.140625 15.859375 C13.51038779 15.82184725 14.88018182 15.78544816 16.25 15.75 C17.27287109 15.69972656 17.27287109 15.69972656 18.31640625 15.6484375 C21.59336496 15.58480723 23.54813082 15.65711266 26.19714355 17.66723633 C28.43893933 20.56795521 28.50611059 22.07745844 28.51757812 25.71484375 C28.53018677 26.86283447 28.54279541 28.0108252 28.55578613 29.19360352 C28.54768921 30.42908936 28.53959229 31.6645752 28.53125 32.9375 C28.53699036 34.84583618 28.53699036 34.84583618 28.54284668 36.79272461 C28.54556927 39.48313827 28.54019814 42.17209871 28.52148438 44.86230469 C28.49869362 48.30594745 28.51181969 51.74834327 28.53577423 55.19194031 C28.55372552 58.48217128 28.5411472 61.77225275 28.53125 65.0625 C28.53934692 66.29798584 28.54744385 67.53347168 28.55578613 68.80639648 C28.54317749 69.95438721 28.53056885 71.10237793 28.51757812 72.28515625 C28.51439575 73.29457275 28.51121338 74.30398926 28.50793457 75.34399414 C27.84907505 78.78919132 26.82528782 79.95412249 24 82 C21.41992188 82.50793457 21.41992188 82.50793457 18.46875 82.51757812 C17.36080078 82.53018677 16.25285156 82.54279541 15.11132812 82.55578613 C13.91958984 82.54768921 12.72785156 82.53959229 11.5 82.53125 C9.65825195 82.53699036 9.65825195 82.53699036 7.77929688 82.54284668 C5.18358541 82.54556842 2.58784664 82.53818911 -0.0078125 82.52148438 C-3.98499599 82.50008075 -7.96037282 82.52127963 -11.9375 82.546875 C-14.45833733 82.54423177 -16.97917353 82.53910691 -19.5 82.53125 C-21.28760742 82.54339539 -21.28760742 82.54339539 -23.11132812 82.55578613 C-24.21927734 82.54317749 -25.32722656 82.53056885 -26.46875 82.51757812 C-27.44263672 82.51439575 -28.41652344 82.51121338 -29.41992188 82.50793457 C-32.81670911 81.83921619 -33.97789286 80.78722084 -36 78 C-36.50793457 75.34399414 -36.50793457 75.34399414 -36.51757812 72.28515625 C-36.53018677 71.13716553 -36.54279541 69.9891748 -36.55578613 68.80639648 C-36.54768921 67.57091064 -36.53959229 66.3354248 -36.53125 65.0625 C-36.5350769 63.79027588 -36.53890381 62.51805176 -36.54284668 61.20727539 C-36.54556927 58.51686173 -36.54019814 55.82790129 -36.52148438 53.13769531 C-36.49869362 49.69405255 -36.51181969 46.25165673 -36.53577423 42.80805969 C-36.55372552 39.51782872 -36.5411472 36.22774725 -36.53125 32.9375 C-36.53934692 31.70201416 -36.54744385 30.46652832 -36.55578613 29.19360352 C-36.54317749 28.04561279 -36.53056885 26.89762207 -36.51757812 25.71484375 C-36.51439575 24.70542725 -36.51121338 23.69601074 -36.50793457 22.65600586 C-35.86075233 19.27186954 -34.70391023 18.07763746 -32 16 C-28.765625 15.609375 -28.765625 15.609375 -25.25 15.75 C-24.07953125 15.78609375 -22.9090625 15.8221875 -21.703125 15.859375 C-20.81109375 15.90578125 -19.9190625 15.9521875 -19 16 C-18.97421875 15.40832031 -18.9484375 14.81664062 -18.921875 14.20703125 C-18.54554526 8.9640737 -17.98840916 5.76050006 -14 2 C-9.51155814 -0.7083775 -5.10296802 -0.64492487 0 0 Z M-11 8 C-13.46225016 11.09245003 -13.46225016 11.09245003 -13 16 C-7.72 16 -2.44 16 3 16 C2.60060566 9.60877717 2.60060566 9.60877717 0.75 7.125 C-3.84536097 4.17083938 -6.74587892 4.78066513 -11 8 Z " fill="#CB0303" transform="translate(648,198)"/>
<path d="M0 0 C33 0 33 0 39 3 C45.06782833 9.34363871 46.47495008 14.39520586 46.31640625 22.98828125 C45.71683438 28.69531724 43.62180807 32.45928233 39.5 36.375 C37.37141757 37.75857858 35.27617099 38.89084888 33 40 C33.63615234 41.17357056 33.63615234 41.17357056 34.28515625 42.37084961 C35.85224998 45.26416098 37.41748207 48.15846292 38.98144531 51.0534668 C39.65973289 52.30810372 40.33876794 53.56233683 41.01855469 54.81616211 C41.99348912 56.61467454 42.96575805 58.41460487 43.9375 60.21484375 C44.81728516 61.84087524 44.81728516 61.84087524 45.71484375 63.49975586 C47 66 47 66 47 67 C42.71 67 38.42 67 34 67 C32.04080742 63.41713406 30.08261214 59.83372932 28.125 56.25 C27.56941406 55.23421875 27.01382813 54.2184375 26.44140625 53.171875 C25.90644531 52.1921875 25.37148438 51.2125 24.8203125 50.203125 C24.32805176 49.30239258 23.83579102 48.40166016 23.32861328 47.47363281 C22 45 22 45 21.32373047 42.73730469 C20.88689941 42.16399414 20.45006836 41.59068359 20 41 C17.36 40.67 14.72 40.34 12 40 C12 48.91 12 57.82 12 67 C8.04 67 4.08 67 0 67 C0 44.89 0 22.78 0 0 Z M12 9 C12 16.26 12 23.52 12 31 C14.536875 31.061875 17.07375 31.12375 19.6875 31.1875 C20.87218872 31.22846802 20.87218872 31.22846802 22.08081055 31.27026367 C26.58845971 31.32326802 29.48577203 30.88260765 33 28 C34.44540951 23.66377146 34.5348333 19.53162813 34 15 C31.89495409 11.44319828 30.91593192 10.30531064 27 9 C24.42502932 8.92964561 21.88550071 8.9065066 19.3125 8.9375 C16.899375 8.958125 14.48625 8.97875 12 9 Z " fill="#0055B8" transform="translate(678,213)"/>
<path d="M0 0 C3.77155452 0.05943711 5.07250526 0.26495326 8.375 2.3125 C10.93970043 6.5015107 11.34502284 9.58934464 10.25 14.375 C8.71265871 17.44968258 6.52951019 19.81957144 4.25 22.375 C3.32969309 23.44852078 2.41192641 24.52422215 1.49609375 25.6015625 C-0.57123811 28.02917487 -2.64914103 30.44712746 -4.734375 32.859375 C-8.05448784 36.71270546 -11.26644107 40.64931531 -14.47265625 44.59765625 C-17.48751701 48.27444184 -20.56339817 51.89758445 -23.64892578 55.51513672 C-25.90884113 58.17147258 -28.13957035 60.84294947 -30.30859375 63.57421875 C-31.48615234 65.05341797 -31.48615234 65.05341797 -32.6875 66.5625 C-33.72197266 67.88314453 -33.72197266 67.88314453 -34.77734375 69.23046875 C-36.73895006 71.36298729 -38.03425722 72.42715252 -40.75 73.375 C-45.51471422 73.29936962 -47.78156586 73.02062276 -51.75 70.375 C-54.05649606 66.91525591 -54.67135238 64.92627349 -54.4140625 60.81640625 C-53.0284584 55.72227352 -49.22110242 52.20309871 -45.75 48.375 C-44.42693397 46.82554043 -43.118997 45.2640849 -41.8112793 43.70166016 C-39.47363493 40.91243956 -37.1091762 38.14600648 -34.75 35.375 C-32.87335679 33.16805727 -30.99840562 30.95969163 -29.125 28.75 C-28.43917847 27.94151611 -28.43917847 27.94151611 -27.73950195 27.11669922 C-24.82619269 23.67327088 -21.96440466 20.19239013 -19.125 16.6875 C-5.72880714 0.22033874 -5.72880714 0.22033874 0 0 Z " fill="#0055B8" transform="translate(147.75,288.625)"/>
<path d="M0 0 C3.63 0 7.26 0 11 0 C11.33 9.9 11.66 19.8 12 30 C13.753125 27.64875 15.50625 25.2975 17.3125 22.875 C18.42476429 21.41328811 19.53788245 19.95222501 20.65234375 18.4921875 C22.79585337 15.66150651 24.81861263 12.79670466 26.75390625 9.8203125 C33.06313761 0.44191516 33.06313761 0.44191516 38.80078125 -0.8671875 C42.31667621 -0.87425463 45.54621035 -0.63529561 49 0 C45.35683573 4.88950994 41.66525079 9.73745657 37.9375 14.5625 C34.52883738 18.9775176 31.1917443 23.42516651 28 28 C31.10611 34.633652 34.67090155 40.90378508 38.47021484 47.15478516 C42.4435722 53.69748081 46.2259844 60.34069236 50 67 C45.11162969 67.83570045 40.86074909 68.1032494 36 67 C31.90667502 63.1475474 29.63319929 58.59903456 27.125 53.625 C26.42277712 52.33850953 25.71577952 51.05461319 25.00390625 49.7734375 C20 40.63185547 20 40.63185547 20 38 C19.236875 38.763125 18.47375 39.52625 17.6875 40.3125 C16.29116691 41.70883309 14.88138296 43.09879148 13.36401367 44.36254883 C11.52601607 46.56900129 11.57455972 48.03952935 11.48828125 50.88671875 C11.45283203 51.82451172 11.41738281 52.76230469 11.38085938 53.72851562 C11.34702148 55.19321289 11.34702148 55.19321289 11.3125 56.6875 C11.27833984 57.67556641 11.24417969 58.66363281 11.20898438 59.68164062 C11.12650431 62.12069399 11.06157567 64.56032939 11 67 C7.37 67 3.74 67 0 67 C0 44.89 0 22.78 0 0 Z " fill="#0055B8" transform="translate(563,213)"/>
<path d="M0 0 C1.76953125 1.546875 1.76953125 1.546875 3 3 C3.0625 4.875 3.0625 4.875 2 7 C0.09697059 8.83994556 -1.89068293 10.38435288 -4 12 C-4.53109375 11.57847656 -5.0621875 11.15695313 -5.609375 10.72265625 C-6.31578125 10.17480469 -7.0221875 9.62695312 -7.75 9.0625 C-8.44609375 8.51722656 -9.1421875 7.97195312 -9.859375 7.41015625 C-14.01833705 4.67040205 -18.09483607 4.66171283 -23 5 C-26.78847957 6.54631284 -26.78847957 6.54631284 -30 9 C-30.07226502 10.85287502 -30.0838122 12.70833878 -30.0625 14.5625 C-30.05347656 15.57441406 -30.04445313 16.58632812 -30.03515625 17.62890625 C-30.02355469 18.41136719 -30.01195312 19.19382813 -30 20 C-28.41717291 20.43932799 -26.83369546 20.87631269 -25.25 21.3125 C-23.75146484 21.72628906 -23.75146484 21.72628906 -22.22265625 22.1484375 C-20.09393627 22.71093563 -17.95544486 23.2378057 -15.80859375 23.7265625 C-7.58731728 25.59924375 -1.96318426 27.83095606 3 35 C4.97784396 40.93353187 5.00831235 47.63853119 2.375 53.375 C-0.76577639 58.7908971 -5.07777315 61.97714635 -11 64 C-20.60843639 65.7153316 -30.20036495 65.53819462 -38.71484375 60.34375 C-44.70847933 55.87456202 -44.70847933 55.87456202 -46 52 C-44.8803014 50.99406757 -43.7540588 49.9954151 -42.625 49 C-41.99851562 48.443125 -41.37203125 47.88625 -40.7265625 47.3125 C-39 46 -39 46 -37 46 C-36.29875 46.763125 -35.5975 47.52625 -34.875 48.3125 C-30.49115452 52.41044251 -26.29285059 53.76280856 -20.375 54.375 C-15.66805352 53.85200595 -12.35003341 52.35003341 -9 49 C-8.64360439 46.89582032 -8.64360439 46.89582032 -8.6875 44.5625 C-8.67074219 43.78003906 -8.65398437 42.99757813 -8.63671875 42.19140625 C-9.09778304 39.41014745 -9.71612302 38.63482647 -12 37 C-14.61219141 36.09293388 -14.61219141 36.09293388 -17.5625 35.5 C-19.16351563 35.12294922 -19.16351563 35.12294922 -20.796875 34.73828125 C-21.85390625 34.49464844 -22.9109375 34.25101563 -24 34 C-30.79470399 32.41648848 -36.46315349 30.59372553 -41 25 C-44.17513817 18.68158124 -44.04590572 11.19582304 -41.875 4.5625 C-37.74561602 -1.08099145 -33.01993409 -4.19374203 -26.234375 -5.5546875 C-16.70572332 -6.86660331 -8.03126409 -5.36451231 0 0 Z " fill="#0055B8" transform="translate(432,217)"/>
<path d="M0 0 C14.19 0 28.38 0 43 0 C43 2.97 43 5.94 43 9 C32.77 9 22.54 9 12 9 C12 15.27 12 21.54 12 28 C21.9 28 31.8 28 42 28 C42 31.3 42 34.6 42 38 C32.1 38 22.2 38 12 38 C12 44.6 12 51.2 12 58 C22.23 58 32.46 58 43 58 C43 60.97 43 63.94 43 67 C28.81 67 14.62 67 0 67 C0 44.89 0 22.78 0 0 Z " fill="#0055B8" transform="translate(506,213)"/>
<path d="M0 0 C14.19 0 28.38 0 43 0 C43 2.97 43 5.94 43 9 C32.77 9 22.54 9 12 9 C12 15.27 12 21.54 12 28 C21.9 28 31.8 28 42 28 C42 31.3 42 34.6 42 38 C32.1 38 22.2 38 12 38 C12 44.6 12 51.2 12 58 C22.23 58 32.46 58 43 58 C43 60.97 43 63.94 43 67 C28.81 67 14.62 67 0 67 C0 44.89 0 22.78 0 0 Z " fill="#0056B8" transform="translate(448,213)"/>
<path d="M0 0 C5.92118455 3.4238142 9.26422302 8.89139373 11.296875 15.328125 C12.06440179 22.01657272 10.6435707 27.46895394 7.296875 33.328125 C5.19920653 35.7508559 2.95566253 37.55364786 0.296875 39.328125 C-1.064375 40.25625 -1.064375 40.25625 -2.453125 41.203125 C-9.29721669 43.57223366 -15.58565721 43.20993783 -22.140625 40.140625 C-27.57948981 37.06835485 -30.84937997 33.35517483 -33.15625 27.47265625 C-34.79491951 21.04673083 -34.69599513 14.4558209 -31.765625 8.453125 C-24.47813506 -3.031458 -11.83158921 -5.21765735 0 0 Z " fill="#0358B9" transform="translate(209.703125,174.671875)"/>
<path d="M0 0 C12.54 0 25.08 0 38 0 C38 2.64 38 5.28 38 8 C28.76 8 19.52 8 10 8 C10 13.61 10 19.22 10 25 C18.91 25 27.82 25 37 25 C37 27.97 37 30.94 37 34 C28.09 34 19.18 34 10 34 C10 39.94 10 45.88 10 52 C19.24 52 28.48 52 38 52 C38 54.64 38 57.28 38 60 C25.46 60 12.92 60 0 60 C0 40.2 0 20.4 0 0 Z " fill="#FDF6F6" transform="translate(625,217)"/>
<path d="M0 0 C0.33 0 0.66 0 1 0 C1.07346448 2.25649265 1.14622438 4.51300823 1.21875 6.76953125 C1.24144455 7.47319824 1.2641391 8.17686523 1.28752136 8.90185547 C1.41061543 12.7783214 1.52393836 16.65475601 1.62036133 20.53198242 C1.65957522 22.09424061 1.69888127 23.65649649 1.73828125 25.21875 C1.75752151 25.98846634 1.77676178 26.75818268 1.79658508 27.55122375 C1.90930894 31.72211858 2.10276296 35.86965186 2.41796875 40.03125 C3.01464429 49.3150861 1.77915411 55.13206784 -4.2668457 62.34887695 C-5.6171875 63.82421875 -5.6171875 63.82421875 -8 66 C-8.66 66 -9.32 66 -10 66 C-11.6018962 64.05127123 -13.09336476 62.10722061 -14.5625 60.0625 C-17.10752322 56.38299103 -17.10752322 56.38299103 -20 53 C-20.09038089 50.88581483 -20.10619836 48.76842331 -20.09375 46.65234375 C-20.09016479 45.98968002 -20.08657959 45.3270163 -20.08288574 44.64427185 C-20.015203 35.94785414 -19.7531897 27.25506323 -19.5 18.5625 C-19.45163073 16.8483127 -19.40345259 15.13412 -19.35546875 13.41992188 C-19.23917393 9.27988255 -19.12032245 5.13992415 -19 1 C-16.42034003 2.20784926 -14.6791835 3.28071444 -12.5 5.1875 C-10.24672281 7.24351186 -10.24672281 7.24351186 -8.04296875 6.8046875 C-5.68080203 5.87427384 -4.52287968 4.79737302 -2.8125 2.9375 C-1.88962692 1.9445353 -0.95561489 0.9614956 0 0 Z " fill="#CB0505" transform="translate(207,229)"/>
<path d="M0 0 C4.62848729 9.44982821 4.17532733 19.88052631 1.375 29.875 C-0.60314779 35.58497271 -3.33468279 40.22703198 -7 45 C-7.86625 46.299375 -7.86625 46.299375 -8.75 47.625 C-13.4751457 52.61265379 -19.07101961 57.05795615 -26 58 C-26.33 56.35 -26.66 54.7 -27 53 C-26.3709375 52.59910156 -25.741875 52.19820313 -25.09375 51.78515625 C-15.25805309 45.25271297 -8.49999807 38.44914624 -5 27 C-4.80535156 26.39414063 -4.61070312 25.78828125 -4.41015625 25.1640625 C-3.80943736 21.99455522 -3.86852224 18.91018462 -3.875 15.6875 C-3.87242187 14.41261719 -3.86984375 13.13773438 -3.8671875 11.82421875 C-3.99611126 8.11197286 -4.40367413 4.6584119 -5 1 C-3 0 -3 0 0 0 Z " fill="#0D5FBC" transform="translate(251,213)"/>
<path d="M0 0 C3.83378636 1.81233537 5.53351018 3.30026527 7.875 6.8125 C9.13934666 10.39481555 9.22631656 13.22805741 9 17 C7.02 17 5.04 17 3 17 C2.773125 15.741875 2.54625 14.48375 2.3125 13.1875 C1.52520232 10.08785947 1.15253846 9.1440641 -1.25 6.875 C-4.89481116 5.71528736 -6.60473852 6.34009439 -10 8 C-12.12508244 11.18762365 -12.5020163 13.26512223 -13 17 C-14.98 17 -16.96 17 -19 17 C-19.50135637 10.85838443 -18.48450993 7.89714909 -15 3 C-10.71648676 -0.90555619 -5.50129666 -0.78464007 0 0 Z " fill="#0155B7" transform="translate(648,198)"/>
<path d="M0 0 C1.155 0.33 2.31 0.66 3.5 1 C10.10722162 2.64306569 16.33662961 2.11056173 23 1 C23 1.66 23 2.32 23 3 C22.34 3 21.68 3 21 3 C20.73445313 3.58265625 20.46890625 4.1653125 20.1953125 4.765625 C18.96697004 7.06174228 17.59685061 8.80356018 15.875 10.75 C15.06675781 11.67039063 15.06675781 11.67039063 14.2421875 12.609375 C13.62730469 13.29773438 13.62730469 13.29773438 13 14 C8.84387175 10.60271539 5.29400663 7.27000859 2 3 C1.34 2.67 0.68 2.34 0 2 C0 1.34 0 0.68 0 0 Z " fill="#CE1414" transform="translate(186,218)"/>
<path d="M0 0 C0.66 0.33 1.32 0.66 2 1 C0.93787671 8.45071559 -1.34124111 14.43657756 -5 21 C-5.99 21 -6.98 21 -8 21 C-7.72285156 20.4740625 -7.44570312 19.948125 -7.16015625 19.40625 C-5.75495031 16.4917488 -4.59781618 13.52028569 -3.4375 10.5 C-3.00308594 9.3759375 -2.56867188 8.251875 -2.12109375 7.09375 C-1.26195763 4.72289352 -0.53609225 2.45759142 0 0 Z " fill="#D7E4F4" transform="translate(253,236)"/>
<path d="M0 0 C1 3 1 3 -0.4375 6.1875 C-1.2109375 7.5796875 -1.2109375 7.5796875 -2 9 C-2.99 9 -3.98 9 -5 9 C-3.50163895 5.88801935 -1.80066242 2.9465385 0 0 Z " fill="#E4EDF7" transform="translate(250,248)"/>
</svg>
