<svg width="706" height="149" viewBox="0 0 706 149" fill="none" xmlns="http://www.w3.org/2000/svg">
<path d="M47.328 31.992V81.048C47.328 83.928 46.816 86.552 45.792 88.92C44.832 91.288 43.424 93.304 41.568 94.968C39.776 96.632 37.6 97.912 35.04 98.808C32.48 99.704 29.632 100.152 26.496 100.152C20.608 100.152 15.904 98.68 12.384 95.736C8.928 92.792 6.688 88.728 5.664 83.544L15.84 81.432C16.416 84.184 17.504 86.488 19.104 88.344C20.704 90.2 23.2 91.128 26.592 91.128C29.728 91.128 32.16 90.2 33.888 88.344C35.68 86.424 36.576 83.512 36.576 79.608V41.016H13.248V31.992H47.328ZM86.3625 100.152C82.1385 100.152 78.4585 99.384 75.3225 97.848C72.2505 96.248 69.6905 93.976 67.6425 91.032C65.6585 88.088 64.1865 84.472 63.2265 80.184C62.2665 75.896 61.7865 71 61.7865 65.496C61.7865 60.056 62.2665 55.192 63.2265 50.904C64.1865 46.552 65.6585 42.904 67.6425 39.96C69.6905 37.016 72.2505 34.776 75.3225 33.24C78.4585 31.64 82.1385 30.84 86.3625 30.84C90.5865 30.84 94.2345 31.64 97.3065 33.24C100.443 34.776 103.003 37.016 104.987 39.96C107.035 42.904 108.539 46.552 109.499 50.904C110.459 55.192 110.939 60.056 110.939 65.496C110.939 71 110.459 75.896 109.499 80.184C108.539 84.472 107.035 88.088 104.987 91.032C103.003 93.976 100.443 96.248 97.3065 97.848C94.2345 99.384 90.5865 100.152 86.3625 100.152ZM86.3625 91.224C91.1625 91.224 94.5545 89.432 96.5385 85.848C98.5225 82.2 99.5145 77.272 99.5145 71.064V59.832C99.5145 53.688 98.5225 48.824 96.5385 45.24C94.5545 41.592 91.1625 39.768 86.3625 39.768C81.5625 39.768 78.1705 41.592 76.1865 45.24C74.2025 48.824 73.2105 53.688 73.2105 59.832V71.16C73.2105 77.304 74.2025 82.2 76.1865 85.848C78.1705 89.432 81.5625 91.224 86.3625 91.224ZM123.093 31.992H146.229C152.309 31.992 157.013 33.56 160.341 36.696C163.733 39.832 165.429 44.12 165.429 49.56C165.429 53.464 164.469 56.568 162.549 58.872C160.629 61.176 158.037 62.808 154.773 63.768V64.248C158.677 65.144 161.813 66.872 164.181 69.432C166.549 71.928 167.733 75.48 167.733 80.088C167.733 82.84 167.285 85.368 166.389 87.672C165.493 89.976 164.213 91.992 162.549 93.72C160.885 95.384 158.869 96.696 156.501 97.656C154.197 98.552 151.637 99 148.821 99H123.093V31.992ZM145.557 90.744C149.141 90.744 151.893 90.008 153.813 88.536C155.733 87.064 156.693 84.696 156.693 81.432V77.976C156.693 74.712 155.733 72.344 153.813 70.872C151.893 69.4 149.141 68.664 145.557 68.664H133.653V90.744H145.557ZM144.021 60.792C147.413 60.792 149.973 60.152 151.701 58.872C153.493 57.528 154.389 55.32 154.389 52.248V48.792C154.389 45.72 153.493 43.544 151.701 42.264C149.973 40.92 147.413 40.248 144.021 40.248H133.653V60.792H144.021ZM258.474 100.152C252.65 100.152 247.754 99.128 243.786 97.08C239.818 95.032 236.554 92.312 233.994 88.92L240.906 82.296C243.466 85.368 246.186 87.64 249.066 89.112C251.946 90.52 255.21 91.224 258.858 91.224C263.082 91.224 266.314 90.264 268.554 88.344C270.858 86.424 272.01 83.672 272.01 80.088C272.01 77.208 271.178 75 269.514 73.464C267.85 71.864 265.002 70.712 260.97 70.008L253.674 68.856C250.474 68.344 247.786 67.512 245.61 66.36C243.434 65.144 241.674 63.736 240.33 62.136C238.986 60.472 237.994 58.648 237.354 56.664C236.778 54.616 236.49 52.472 236.49 50.232C236.49 43.896 238.538 39.096 242.634 35.832C246.73 32.504 252.362 30.84 259.53 30.84C264.842 30.84 269.354 31.704 273.066 33.432C276.842 35.096 279.882 37.464 282.186 40.536L275.466 47.256C273.61 45.016 271.402 43.224 268.842 41.88C266.346 40.472 263.242 39.768 259.53 39.768C255.562 39.768 252.522 40.632 250.41 42.36C248.362 44.024 247.338 46.488 247.338 49.752C247.338 52.504 248.138 54.68 249.738 56.28C251.402 57.816 254.314 58.936 258.474 59.64L265.578 60.888C271.594 61.976 275.978 64.184 278.73 67.512C281.482 70.776 282.858 74.776 282.858 79.512C282.858 82.584 282.314 85.4 281.226 87.96C280.202 90.52 278.634 92.696 276.522 94.488C274.474 96.28 271.914 97.688 268.842 98.712C265.834 99.672 262.378 100.152 258.474 100.152ZM296.069 99V31.992H338.021V41.016H306.821V60.504H336.869V69.528H306.821V89.976H338.021V99H296.069ZM353.631 99V31.992H395.583V41.016H364.383V60.504H394.431V69.528H364.383V89.976H395.583V99H353.631ZM429.242 68.184L421.178 78.264V99H410.426V31.992H421.178V64.056H421.658L429.818 52.92L446.234 31.992H458.618L436.538 60.216L459.482 99H447.194L429.242 68.184ZM536.783 99H526.127V31.992H551.183C557.583 31.992 562.447 33.784 565.775 37.368C569.167 40.952 570.863 45.88 570.863 52.152C570.863 57.272 569.615 61.496 567.119 64.824C564.623 68.152 561.039 70.2 556.367 70.968L571.823 99H559.919L545.711 71.928H536.783V99ZM549.647 63.288C556.303 63.288 559.631 60.248 559.631 54.168V50.04C559.631 43.96 556.303 40.92 549.647 40.92H536.783V63.288H549.647Z" fill="#0056B9"/>
<rect x="459" y="32" width="64" height="66" rx="8" fill="#CB0303"/>
<path d="M472.396 95V34.972H509.978V43.056H482.028V60.514H508.946V68.598H482.028V86.916H509.978V95H472.396Z" fill="white"/>
<path d="M479 33V29.5C479 23.4249 483.925 18.5 490 18.5V18.5C496.075 18.5 501 23.4249 501 29.5V33" stroke="#0056B9" stroke-width="5"/>
<rect width="10.1853" height="24.7565" rx="5.09264" transform="matrix(0.761454 0.648219 -0.637337 0.770585 182.959 68)" fill="#0056B9"/>
<path d="M196 74L205.399 82.6L214 74.3185L205.399 76.2296L196 74Z" fill="#CB0303"/>
<path d="M198.566 79.898L205.399 84.8296L211.858 79.898L212.827 108.883L205.399 117L197.972 108.883L198.566 79.898Z" fill="#CB0303"/>
<path d="M196 74L205.399 82.6L214 74.3185L205.399 76.2296L196 74Z" stroke="#0056B9"/>
<path d="M198.566 79.898L205.399 84.8296L211.858 79.898L212.827 108.883L205.399 117L197.972 108.883L198.566 79.898Z" stroke="#0056B9"/>
<path d="M204.178 28.5C215.577 28.5 224.855 37.8815 224.855 49.5C224.855 61.1184 215.577 70.5 204.178 70.5C192.778 70.5 183.5 61.1184 183.5 49.5C183.5 37.8815 192.778 28.5 204.178 28.5Z" fill="white" stroke="#0056B9" stroke-width="3"/>
<path d="M216.338 38.3967C216.644 38.0729 217.152 38.0434 217.48 38.3523C218.569 39.3793 219.465 40.5739 220.125 41.8825C220.902 43.4236 221.335 45.0895 221.395 46.7749C221.455 48.4602 221.143 50.1285 220.476 51.6743C219.915 52.9781 219.112 54.1708 218.105 55.1999C217.789 55.5238 217.27 55.5068 216.943 55.186V55.186C216.582 54.8325 216.594 54.2521 216.935 53.8876C217.73 53.0377 218.368 52.0658 218.824 51.0095C219.399 49.6753 219.669 48.2353 219.616 46.7806C219.564 45.3259 219.191 43.8881 218.52 42.5579C217.983 41.4928 217.265 40.5153 216.396 39.664C216.044 39.3183 216.004 38.7517 216.338 38.3967V38.3967Z" fill="#0056B9"/>
</svg>
